<mxfile host="65bd71144e">
    <diagram name="Page-1" id="X6M3C8rJ8BmQF-4nXXHI">
        <mxGraphModel dx="3340" dy="1877" grid="1" gridSize="10" guides="1" tooltips="1" connect="1" arrows="1" fold="1" page="1" pageScale="1" pageWidth="827" pageHeight="1169" background="none" math="0" shadow="0">
            <root>
                <mxCell id="0"/>
                <mxCell id="1" parent="0"/>
                <mxCell id="ENUBvOWETPFiKrcu_Qbd-1" value="" style="whiteSpace=wrap;html=1;aspect=fixed;" parent="1" vertex="1">
                    <mxGeometry x="460" y="180" width="590" height="590" as="geometry"/>
                </mxCell>
                <mxCell id="ENUBvOWETPFiKrcu_Qbd-2" value="Institute Management System" style="rounded=0;whiteSpace=wrap;html=1;strokeColor=#FFFFFF;" parent="1" vertex="1">
                    <mxGeometry x="470" y="190" width="200" height="30" as="geometry"/>
                </mxCell>
                <mxCell id="ENUBvOWETPFiKrcu_Qbd-4" value="Login /&amp;nbsp; Logout" style="ellipse;whiteSpace=wrap;html=1;" parent="1" vertex="1">
                    <mxGeometry x="551" y="250" width="156" height="40" as="geometry"/>
                </mxCell>
                <mxCell id="ENUBvOWETPFiKrcu_Qbd-5" value="Add / View Teacher Details" style="ellipse;whiteSpace=wrap;html=1;" parent="1" vertex="1">
                    <mxGeometry x="544" y="310" width="170" height="50" as="geometry"/>
                </mxCell>
                <mxCell id="ENUBvOWETPFiKrcu_Qbd-6" value="search Student/ Teacher" style="ellipse;whiteSpace=wrap;html=1;" parent="1" vertex="1">
                    <mxGeometry x="551" y="450" width="156" height="50" as="geometry"/>
                </mxCell>
                <mxCell id="ENUBvOWETPFiKrcu_Qbd-7" value="create Task" style="ellipse;whiteSpace=wrap;html=1;" parent="1" vertex="1">
                    <mxGeometry x="560" y="520" width="170" height="50" as="geometry"/>
                </mxCell>
                <mxCell id="ENUBvOWETPFiKrcu_Qbd-14" value="&lt;div&gt;Admin&lt;/div&gt;" style="shape=umlActor;verticalLabelPosition=bottom;verticalAlign=top;html=1;outlineConnect=0;" parent="1" vertex="1">
                    <mxGeometry x="370" y="270" width="40" height="70" as="geometry"/>
                </mxCell>
                <mxCell id="ENUBvOWETPFiKrcu_Qbd-26" value="" style="endArrow=none;html=1;rounded=0;" parent="1" target="ENUBvOWETPFiKrcu_Qbd-4" edge="1">
                    <mxGeometry width="50" height="50" relative="1" as="geometry">
                        <mxPoint x="400" y="310" as="sourcePoint"/>
                        <mxPoint x="575" y="270" as="targetPoint"/>
                    </mxGeometry>
                </mxCell>
                <mxCell id="ENUBvOWETPFiKrcu_Qbd-27" value="" style="endArrow=none;html=1;rounded=0;entryX=0;entryY=0.5;entryDx=0;entryDy=0;" parent="1" target="ENUBvOWETPFiKrcu_Qbd-5" edge="1">
                    <mxGeometry width="50" height="50" relative="1" as="geometry">
                        <mxPoint x="400" y="310" as="sourcePoint"/>
                        <mxPoint x="585" y="280" as="targetPoint"/>
                    </mxGeometry>
                </mxCell>
                <mxCell id="ENUBvOWETPFiKrcu_Qbd-28" value="" style="endArrow=none;html=1;rounded=0;entryX=0;entryY=0.5;entryDx=0;entryDy=0;" parent="1" target="ENUBvOWETPFiKrcu_Qbd-6" edge="1">
                    <mxGeometry width="50" height="50" relative="1" as="geometry">
                        <mxPoint x="400" y="310" as="sourcePoint"/>
                        <mxPoint x="595" y="290" as="targetPoint"/>
                    </mxGeometry>
                </mxCell>
                <mxCell id="ENUBvOWETPFiKrcu_Qbd-29" value="" style="endArrow=none;html=1;rounded=0;entryX=0;entryY=0.5;entryDx=0;entryDy=0;" parent="1" target="ENUBvOWETPFiKrcu_Qbd-7" edge="1">
                    <mxGeometry width="50" height="50" relative="1" as="geometry">
                        <mxPoint x="400" y="310" as="sourcePoint"/>
                        <mxPoint x="605" y="300" as="targetPoint"/>
                    </mxGeometry>
                </mxCell>
                <mxCell id="ENUBvOWETPFiKrcu_Qbd-32" value="" style="endArrow=none;html=1;rounded=0;entryX=0;entryY=0.5;entryDx=0;entryDy=0;" parent="1" target="27" edge="1">
                    <mxGeometry width="50" height="50" relative="1" as="geometry">
                        <mxPoint x="400" y="310" as="sourcePoint"/>
                        <mxPoint x="544" y="675" as="targetPoint"/>
                    </mxGeometry>
                </mxCell>
                <mxCell id="ENUBvOWETPFiKrcu_Qbd-50" value="Teacher" style="shape=umlActor;verticalLabelPosition=bottom;verticalAlign=top;html=1;outlineConnect=0;" parent="1" vertex="1">
                    <mxGeometry x="1130" y="540" width="30" height="60" as="geometry"/>
                </mxCell>
                <mxCell id="ENUBvOWETPFiKrcu_Qbd-53" value="View Task Details" style="ellipse;whiteSpace=wrap;html=1;" parent="1" vertex="1">
                    <mxGeometry x="744" y="420" width="130" height="50" as="geometry"/>
                </mxCell>
                <mxCell id="ENUBvOWETPFiKrcu_Qbd-55" value="Submit task" style="ellipse;whiteSpace=wrap;html=1;" parent="1" vertex="1">
                    <mxGeometry x="754" y="480" width="120" height="50" as="geometry"/>
                </mxCell>
                <mxCell id="ENUBvOWETPFiKrcu_Qbd-56" value="" style="endArrow=none;html=1;rounded=0;entryX=0.5;entryY=0.5;entryDx=0;entryDy=0;entryPerimeter=0;" parent="1" source="ENUBvOWETPFiKrcu_Qbd-55" target="ENUBvOWETPFiKrcu_Qbd-50" edge="1">
                    <mxGeometry width="50" height="50" relative="1" as="geometry">
                        <mxPoint x="970" y="690" as="sourcePoint"/>
                        <mxPoint x="1020" y="640" as="targetPoint"/>
                    </mxGeometry>
                </mxCell>
                <mxCell id="ENUBvOWETPFiKrcu_Qbd-58" value="" style="endArrow=none;html=1;rounded=0;entryX=0.5;entryY=0.5;entryDx=0;entryDy=0;entryPerimeter=0;exitX=1;exitY=0.5;exitDx=0;exitDy=0;" parent="1" source="ENUBvOWETPFiKrcu_Qbd-53" target="ENUBvOWETPFiKrcu_Qbd-50" edge="1">
                    <mxGeometry width="50" height="50" relative="1" as="geometry">
                        <mxPoint x="970" y="580" as="sourcePoint"/>
                        <mxPoint x="1095" y="580" as="targetPoint"/>
                    </mxGeometry>
                </mxCell>
                <mxCell id="ENUBvOWETPFiKrcu_Qbd-60" value="" style="endArrow=none;html=1;rounded=0;entryX=0.5;entryY=0.5;entryDx=0;entryDy=0;entryPerimeter=0;exitX=1;exitY=1;exitDx=0;exitDy=0;" parent="1" source="ENUBvOWETPFiKrcu_Qbd-4" target="ENUBvOWETPFiKrcu_Qbd-50" edge="1">
                    <mxGeometry width="50" height="50" relative="1" as="geometry">
                        <mxPoint x="690" y="330" as="sourcePoint"/>
                        <mxPoint x="1090" y="630" as="targetPoint"/>
                    </mxGeometry>
                </mxCell>
                <mxCell id="4" value="Student" style="shape=umlActor;verticalLabelPosition=bottom;verticalAlign=top;html=1;outlineConnect=0;" parent="1" vertex="1">
                    <mxGeometry x="1127" y="230" width="30" height="60" as="geometry"/>
                </mxCell>
                <mxCell id="7" value="View Marks" style="ellipse;whiteSpace=wrap;html=1;" parent="1" vertex="1">
                    <mxGeometry x="830" y="205" width="120" height="45" as="geometry"/>
                </mxCell>
                <mxCell id="9" value="" style="endArrow=none;html=1;entryX=0.5;entryY=0.5;entryDx=0;entryDy=0;entryPerimeter=0;exitX=1;exitY=0.5;exitDx=0;exitDy=0;" parent="1" source="7" target="4" edge="1">
                    <mxGeometry width="50" height="50" relative="1" as="geometry">
                        <mxPoint x="870" y="480" as="sourcePoint"/>
                        <mxPoint x="920" y="430" as="targetPoint"/>
                    </mxGeometry>
                </mxCell>
                <mxCell id="10" value="View Student Details" style="ellipse;whiteSpace=wrap;html=1;" parent="1" vertex="1">
                    <mxGeometry x="744" y="550" width="170" height="50" as="geometry"/>
                </mxCell>
                <mxCell id="11" value="" style="endArrow=none;html=1;entryX=0.5;entryY=0.5;entryDx=0;entryDy=0;entryPerimeter=0;exitX=1;exitY=0.5;exitDx=0;exitDy=0;" parent="1" source="10" target="ENUBvOWETPFiKrcu_Qbd-50" edge="1">
                    <mxGeometry width="50" height="50" relative="1" as="geometry">
                        <mxPoint x="870" y="480" as="sourcePoint"/>
                        <mxPoint x="920" y="430" as="targetPoint"/>
                    </mxGeometry>
                </mxCell>
                <mxCell id="12" value="" style="endArrow=none;html=1;exitX=1;exitY=0.5;exitDx=0;exitDy=0;entryX=0.5;entryY=0.5;entryDx=0;entryDy=0;entryPerimeter=0;" parent="1" source="ENUBvOWETPFiKrcu_Qbd-4" target="4" edge="1">
                    <mxGeometry width="50" height="50" relative="1" as="geometry">
                        <mxPoint x="870" y="480" as="sourcePoint"/>
                        <mxPoint x="920" y="430" as="targetPoint"/>
                        <Array as="points"/>
                    </mxGeometry>
                </mxCell>
                <mxCell id="15" value="Update Marks" style="ellipse;whiteSpace=wrap;html=1;" parent="1" vertex="1">
                    <mxGeometry x="749" y="629" width="160" height="40" as="geometry"/>
                </mxCell>
                <mxCell id="16" value="" style="endArrow=none;html=1;exitX=1;exitY=0.5;exitDx=0;exitDy=0;entryX=0.5;entryY=0.5;entryDx=0;entryDy=0;entryPerimeter=0;" parent="1" source="15" edge="1" target="ENUBvOWETPFiKrcu_Qbd-50">
                    <mxGeometry width="50" height="50" relative="1" as="geometry">
                        <mxPoint x="950" y="695" as="sourcePoint"/>
                        <mxPoint x="1110" y="570" as="targetPoint"/>
                    </mxGeometry>
                </mxCell>
                <mxCell id="17" value="View/update Profile" style="ellipse;whiteSpace=wrap;html=1;" parent="1" vertex="1">
                    <mxGeometry x="830" y="270" width="120" height="50" as="geometry"/>
                </mxCell>
                <mxCell id="18" value="" style="endArrow=none;html=1;entryX=0.5;entryY=0.5;entryDx=0;entryDy=0;entryPerimeter=0;exitX=1;exitY=0.5;exitDx=0;exitDy=0;" parent="1" source="17" target="4" edge="1">
                    <mxGeometry width="50" height="50" relative="1" as="geometry">
                        <mxPoint x="1000" y="380" as="sourcePoint"/>
                        <mxPoint x="920" y="430" as="targetPoint"/>
                    </mxGeometry>
                </mxCell>
                <mxCell id="23" value="Add / View Student Details" style="ellipse;whiteSpace=wrap;html=1;" vertex="1" parent="1">
                    <mxGeometry x="544" y="380" width="170" height="50" as="geometry"/>
                </mxCell>
                <mxCell id="24" value="" style="endArrow=none;html=1;rounded=0;entryX=0;entryY=0.5;entryDx=0;entryDy=0;" edge="1" parent="1" target="23">
                    <mxGeometry width="50" height="50" relative="1" as="geometry">
                        <mxPoint x="400" y="310" as="sourcePoint"/>
                        <mxPoint x="551" y="420" as="targetPoint"/>
                    </mxGeometry>
                </mxCell>
                <mxCell id="27" value="Check Assigned Task" style="ellipse;whiteSpace=wrap;html=1;" vertex="1" parent="1">
                    <mxGeometry x="551" y="590" width="170" height="50" as="geometry"/>
                </mxCell>
                <mxCell id="31" value="view Attendence" style="ellipse;whiteSpace=wrap;html=1;" vertex="1" parent="1">
                    <mxGeometry x="840" y="330" width="120" height="50" as="geometry"/>
                </mxCell>
                <mxCell id="32" value="" style="endArrow=none;html=1;exitX=1;exitY=0;exitDx=0;exitDy=0;entryX=0.5;entryY=0.5;entryDx=0;entryDy=0;entryPerimeter=0;" edge="1" parent="1" source="31" target="4">
                    <mxGeometry width="50" height="50" relative="1" as="geometry">
                        <mxPoint x="980" y="324.9999999999999" as="sourcePoint"/>
                        <mxPoint x="1110" y="280" as="targetPoint"/>
                    </mxGeometry>
                </mxCell>
                <mxCell id="33" value="View Feedback" style="ellipse;whiteSpace=wrap;html=1;" vertex="1" parent="1">
                    <mxGeometry x="520" y="669" width="170" height="50" as="geometry"/>
                </mxCell>
                <mxCell id="34" value="" style="endArrow=none;html=1;rounded=0;entryX=0;entryY=0.5;entryDx=0;entryDy=0;" edge="1" parent="1" target="33">
                    <mxGeometry width="50" height="50" relative="1" as="geometry">
                        <mxPoint x="400" y="310" as="sourcePoint"/>
                        <mxPoint x="571.2159936551113" y="617.5245981758444" as="targetPoint"/>
                    </mxGeometry>
                </mxCell>
                <mxCell id="38" value="Give Feedback" style="ellipse;whiteSpace=wrap;html=1;" vertex="1" parent="1">
                    <mxGeometry x="904" y="380" width="120" height="50" as="geometry"/>
                </mxCell>
                <mxCell id="39" value="" style="endArrow=none;html=1;exitX=1;exitY=0;exitDx=0;exitDy=0;entryX=0.5;entryY=0.5;entryDx=0;entryDy=0;entryPerimeter=0;" edge="1" parent="1" source="38" target="4">
                    <mxGeometry width="50" height="50" relative="1" as="geometry">
                        <mxPoint x="953.1014982375677" y="347.6081673778235" as="sourcePoint"/>
                        <mxPoint x="1125" y="270.0000000000001" as="targetPoint"/>
                    </mxGeometry>
                </mxCell>
                <mxCell id="40" value="Add Attendence" style="ellipse;whiteSpace=wrap;html=1;" vertex="1" parent="1">
                    <mxGeometry x="759" y="700" width="160" height="40" as="geometry"/>
                </mxCell>
                <mxCell id="41" value="" style="endArrow=none;html=1;exitX=1;exitY=0.5;exitDx=0;exitDy=0;entryX=0.5;entryY=0.5;entryDx=0;entryDy=0;entryPerimeter=0;" edge="1" parent="1" source="40" target="ENUBvOWETPFiKrcu_Qbd-50">
                    <mxGeometry width="50" height="50" relative="1" as="geometry">
                        <mxPoint x="919" y="659" as="sourcePoint"/>
                        <mxPoint x="1125" y="580" as="targetPoint"/>
                    </mxGeometry>
                </mxCell>
                <mxCell id="56" value="" style="swimlane;startSize=0;" vertex="1" parent="1">
                    <mxGeometry x="230" y="50" width="1020" height="800" as="geometry"/>
                </mxCell>
            </root>
        </mxGraphModel>
    </diagram>
</mxfile>